<svg width="358" height="116" viewBox="0 0 358 116" fill="none" xmlns="http://www.w3.org/2000/svg">
<path d="M157.206 64V88H145.686V22.72H167.478C174.07 22.72 179.126 24.416 182.646 27.808C186.23 31.136 188.022 35.616 188.022 41.248V45.376C188.022 49.088 187.222 52.352 185.622 55.168C184.022 57.984 181.718 60.128 178.71 61.6C183.958 70.56 188.438 79.36 192.15 88H178.998C175.798 80 171.99 72 167.574 64H157.206ZM167.478 33.28H157.206V53.44H167.478C170.294 53.44 172.438 52.736 173.91 51.328C175.446 49.856 176.214 47.872 176.214 45.376V41.248C176.214 38.816 175.446 36.896 173.91 35.488C172.438 34.016 170.294 33.28 167.478 33.28ZM213.018 62.176C213.018 66.848 214.042 70.688 216.09 73.696C218.138 76.64 221.498 78.112 226.17 78.112C228.09 78.112 230.074 77.856 232.122 77.344C234.234 76.832 236.826 75.968 239.898 74.752L243.45 84.736C239.994 86.272 236.794 87.36 233.85 88C230.97 88.64 228.186 88.96 225.498 88.96C220.122 88.96 215.61 87.808 211.962 85.504C208.378 83.2 205.69 80.032 203.898 76C202.106 71.968 201.21 67.36 201.21 62.176V48.448C201.21 43.264 202.106 38.656 203.898 34.624C205.69 30.592 208.378 27.456 211.962 25.216C215.61 22.912 220.122 21.76 225.498 21.76C228.122 21.76 230.842 22.08 233.658 22.72C236.474 23.296 239.546 24.32 242.874 25.792L239.322 35.968C236.378 34.752 233.914 33.888 231.93 33.376C229.946 32.864 228.026 32.608 226.17 32.608C221.498 32.608 218.138 34.08 216.09 37.024C214.042 39.968 213.018 43.776 213.018 48.448V62.176ZM273.15 22.72H284.958V64.576C284.958 68.8 285.886 72.128 287.742 74.56C289.598 76.928 292.574 78.112 296.67 78.112C300.766 78.112 303.742 76.928 305.598 74.56C307.454 72.128 308.382 68.8 308.382 64.576V22.72H320.19V64.576C320.19 71.936 318.238 77.856 314.334 82.336C310.43 86.752 304.542 88.96 296.67 88.96C288.734 88.96 282.814 86.752 278.91 82.336C275.07 77.856 273.15 71.936 273.15 64.576V22.72ZM348.269 88H336.749V22.72H348.269V88Z" fill="black"/>
<path fill-rule="evenodd" clip-rule="evenodd" d="M29 7H116V94L87 123V36H0L29 7ZM0 102.739V65H37.7388L0 102.739ZM58 123H20.751L58 85.7512V123Z" fill="black"/>
</svg>
